<?xml version="1.0" standalone="no"?><!DOCTYPE svg PUBLIC "-//W3C//DTD SVG 1.1//EN" "http://www.w3.org/Graphics/SVG/1.1/DTD/svg11.dtd"><svg width="100%" height="100%" viewBox="0 0 258 43" version="1.1" xmlns="http://www.w3.org/2000/svg" xmlns:xlink="http://www.w3.org/1999/xlink" xml:space="preserve" style="fill-rule:evenodd;clip-rule:evenodd;stroke-linejoin:round;stroke-miterlimit:1.41421;"><g id="Layer1"><path d="M93.19,22.619c0.289,-0.301 0.387,-0.492 0.387,-0.492c0,0 -0.127,0.181 -0.387,0.492Z" style="fill:#000;fill-rule:nonzero;"/><path d="M93.19,22.619c-1.303,1.383 -6.55,5.143 -24.848,4.501c-20.528,-0.722 -28.622,-9.876 -29.192,-15.23l46.805,1.384l0,0.832c0,2.106 1.704,3.81 3.809,3.81c2.107,0 3.813,-1.704 3.813,-3.81l0,-0.702c1.146,-0.04 3.126,-0.11 6.571,-0.22c8.147,-0.261 7.623,-2.366 7.623,-2.366c0.261,-3.68 -9.726,-3.149 -11.039,-3.149c-0.138,0 -1.265,0.02 -3.155,0.06l0,-0.19c0,-2.106 -1.706,-3.81 -3.813,-3.81c-2.105,0 -3.809,1.704 -3.809,3.81l0,0.361c-11.324,0.25 -29.746,0.662 -46.347,1.043c1.629,-4.252 6.968,-7.58 15.854,-7.58c9.987,0 14.455,3.679 14.455,3.679c-7.605,-8.592 -29.883,-5.494 -32.366,3.951c-3.043,0.07 -6.011,0.13 -8.843,0.2c-3.254,-0.491 -6.919,-1.143 -8.73,-1.784c-3.68,-1.324 -2.63,-2.637 -1.052,-2.898c0,0 0.786,-2.627 -2.103,-2.627c-2.892,0 -4.284,4.271 2.103,6.307c1.313,0.421 2.696,0.792 4.048,1.133c-7.444,0.17 -13.498,0.3 -16.878,0.381c-0.452,-1.194 -1.595,-2.036 -2.942,-2.036c-1.742,0 -3.154,1.414 -3.154,3.149c0,1.744 1.412,3.158 3.154,3.158c1.71,0 3.095,-1.364 3.145,-3.058l21.39,0.631c-2.52,0.492 -5.811,1.224 -8.763,2.166c-6.387,2.025 -4.995,6.307 -2.103,6.307c2.889,0 2.103,-2.627 2.103,-2.627c-1.578,-0.261 -2.628,-1.574 1.052,-2.888c3.678,-1.323 14.982,-2.637 14.982,-2.637l-0.363,-0.12l2.787,0.08c0.996,10.568 12.212,16.373 30.958,17.917c16.483,1.354 23.263,-5.234 24.848,-7.128Z" style="fill:#000;fill-rule:nonzero;"/><path d="M254.846,7.669c-1.347,0 -2.49,0.842 -2.942,2.036c-3.381,-0.081 -9.437,-0.211 -16.879,-0.381c1.352,-0.341 2.735,-0.712 4.048,-1.133c6.388,-2.036 4.995,-6.307 2.103,-6.307c-2.892,0 -2.103,2.627 -2.103,2.627c1.575,0.261 2.627,1.574 -1.052,2.898c-1.814,0.641 -5.476,1.293 -8.729,1.784c-2.833,-0.07 -5.801,-0.13 -8.844,-0.2c-2.483,-9.445 -24.76,-12.543 -32.37,-3.951c0,0 4.469,-3.679 14.459,-3.679c8.886,0 14.225,3.328 15.854,7.58c-16.601,-0.381 -35.022,-0.793 -46.346,-1.043l0,-0.361c0,-2.106 -1.707,-3.81 -3.81,-3.81c-2.107,0 -3.813,1.704 -3.813,3.81l0,0.19c-1.89,-0.04 -3.017,-0.06 -3.155,-0.06c-1.313,0 -11.301,-0.531 -11.038,3.149c0,0 -0.524,2.105 7.622,2.366c3.447,0.11 5.425,0.18 6.571,0.22l0,0.702c0,2.106 1.706,3.81 3.813,3.81c2.103,0 3.81,-1.704 3.81,-3.81l0,-0.832l46.805,-1.384c-0.571,5.354 -8.668,14.508 -29.193,15.23c-18.297,0.642 -23.545,-3.118 -24.848,-4.501c1.585,1.894 8.366,8.482 24.848,7.128c18.746,-1.544 29.959,-7.349 30.959,-17.917l2.787,-0.08l-0.364,0.12c0,0 11.305,1.314 14.982,2.637c3.679,1.314 2.627,2.627 1.052,2.888c0,0 -0.789,2.627 2.103,2.627c2.892,0 4.285,-4.282 -2.103,-6.307c-2.955,-0.942 -6.246,-1.674 -8.762,-2.166l21.389,-0.631c0.05,1.694 1.432,3.058 3.146,3.058c1.741,0 3.154,-1.414 3.154,-3.158c0,-1.735 -1.413,-3.149 -3.154,-3.149Z" style="fill:#000;fill-rule:nonzero;"/><path d="M164.809,22.619c-0.262,-0.311 -0.387,-0.492 -0.387,-0.492c0,0 0.098,0.191 0.387,0.492Z" style="fill:#000;fill-rule:nonzero;"/><path d="M129.062,14.768c-1.815,0 -3.286,-1.474 -3.286,-3.289c0,-1.815 1.471,-3.288 3.286,-3.288c1.814,0 3.285,1.473 3.285,3.288c0,1.815 -1.471,3.289 -3.285,3.289ZM128.534,0.31c-2.364,10.247 -19.713,10.778 -19.713,10.778c15.511,0.782 20.241,9.455 20.241,9.455c4.206,-8.402 17.874,-9.194 17.874,-9.194c-16.298,-0.531 -18.402,-11.039 -18.402,-11.039Z" style="fill:#000;fill-rule:nonzero;"/><path d="M128.534,38.42c-1.303,0 -2.364,1.063 -2.364,2.366c0,1.304 1.061,2.367 2.364,2.367c1.308,0 2.369,-1.063 2.369,-2.367c0,-1.303 -1.061,-2.366 -2.369,-2.366Z" style="fill:#000;fill-rule:nonzero;"/><path d="M98.045,23.18c-9.201,3.94 -7.622,15.501 3.679,15.501c11.303,0 13.141,-7.099 13.141,-7.099c0,0 -3.416,6.046 -12.087,5.525c-13.446,-0.813 -10.252,-13.406 3.675,-13.406c13.935,0 19.454,13.666 19.454,13.666c-4.467,-16.553 -18.661,-18.137 -27.862,-14.187Z" style="fill:#000;fill-rule:nonzero;"/><path d="M159.62,23.18c-9.198,-3.95 -23.391,-2.366 -27.862,14.187c0,0 5.522,-13.666 19.454,-13.666c13.931,0 17.124,12.593 3.678,13.406c-8.675,0.521 -12.09,-5.525 -12.09,-5.525c0,0 1.837,7.099 13.141,7.099c11.305,0 12.88,-11.561 3.679,-15.501Z" style="fill:#000;fill-rule:nonzero;"/><path d="M128.273,22.909c-5.258,0.271 0.261,13.406 0.261,13.406c0,0 4.995,-13.666 -0.261,-13.406Z" style="fill:#000;fill-rule:nonzero;"/></g></svg>